<svg xmlns="http://www.w3.org/2000/svg" width="38.739" height="23.285" viewBox="0 0 38.739 23.285">
  <g id="Сгруппировать_34" data-name="Сгруппировать 34" transform="translate(-1596 -74)">
    <g id="Сгруппировать_33" data-name="Сгруппировать 33" transform="translate(1616.631 74)">
      <path id="Контур_325" data-name="Контур 325" d="M281.472,198.005a.9.9,0,0,1-.919.445c-3.4-.009-6.806,0-10.218,0h-.445a3.085,3.085,0,0,0,3.251,3.213,2.723,2.723,0,0,0,2.635-1.564.753.753,0,0,1,.559-.341c1.27-.028,2.55-.028,3.82-.009a.625.625,0,0,1,.607.91,7.959,7.959,0,0,1-3.318,4.057,8.867,8.867,0,0,1-10.047-.076,8.685,8.685,0,0,1-3.716-5.554,8.281,8.281,0,0,1-.028-4.408,8.929,8.929,0,0,1,5.232-5.82,8.745,8.745,0,0,1,8.521.7,8.591,8.591,0,0,1,3.734,5.564c.133.569.209,1.156.313,1.735C281.472,197.247,281.472,197.626,281.472,198.005Zm-2.332,3.024c-.588,0-1.09.028-1.592-.009-.55-.038-1.014.019-1.251.6-.019.057-.085.095-.123.142a4.227,4.227,0,0,1-3.043,1.194,4.165,4.165,0,0,1-4.066-2.408,6.026,6.026,0,0,1-.55-2.379c-.028-.853.114-1.014.948-1.014h10.711c-.123-.7-.2-1.374-.37-2.009a7.356,7.356,0,0,0-8.948-5.573c-3.365.654-6.919,4.142-6.047,8.559a8.193,8.193,0,0,0,2.758,5.024,7.588,7.588,0,0,0,7.441,1.318A7.326,7.326,0,0,0,279.14,201.029Z" transform="translate(-263.364 -182.954)"/>
      <path id="Контур_327" data-name="Контур 327" d="M316.4,137.958h-4.275c-.673,0-.853-.18-.863-.844,0-.758-.009-1.517,0-2.265,0-.54.218-.749.758-.749h8.768c.569,0,.777.209.787.768.009.777.009,1.564,0,2.341-.009.55-.209.749-.768.749Zm-3.82-1.318h7.7V135.4h-7.7Z" transform="translate(-306.716 -134.1)"/>
      <path id="Контур_328" data-name="Контур 328" d="M322.286,220.548H319c-.7,0-.891-.2-.9-.9a3.82,3.82,0,0,1,2.218-3.81,4.309,4.309,0,0,1,4.739.464,3.849,3.849,0,0,1,1.4,3.706c-.019.18-.265.37-.445.483a.989.989,0,0,1-.483.057Zm-2.834-1.327h5.716a2.7,2.7,0,0,0-2.919-2.55C320.608,216.728,319.319,217.884,319.452,219.221Z" transform="translate(-312.908 -207.638)"/>
    </g>
    <g id="Сгруппировать_32" data-name="Сгруппировать 32" transform="translate(1596 74)">
      <path id="Контур_326" data-name="Контур 326" d="M62.25,131.345c.483.351,1,.682,1.479,1.081a5.58,5.58,0,0,1,1.99,3.82,6.563,6.563,0,0,1-.8,4.2,6.176,6.176,0,0,1-4.019,2.787,13.17,13.17,0,0,1-2.91.379c-3.81.038-7.621.019-11.422.019-.682,0-.872-.19-.872-.882V121.26c0-.645.19-.863.768-.863,3.782,0,7.564-.038,11.346.028a7.314,7.314,0,0,1,4.957,1.953c1.981,1.82,2.54,5.858.483,8.047C62.932,130.748,62.572,131.041,62.25,131.345ZM47,142.321c.114.009.19.009.265.009,3.583,0,7.166.028,10.739-.019a10.594,10.594,0,0,0,2.72-.389,4.579,4.579,0,0,0,3.64-3.763,5.041,5.041,0,0,0-1.128-4.483,5.477,5.477,0,0,0-2.692-1.592c-.493-.133-.711-.445-.607-.872.085-.341.389-.436.663-.55a3.928,3.928,0,0,0,2.607-3.5,4.525,4.525,0,0,0-1.564-4.028,6.89,6.89,0,0,0-4.474-1.469c-3.27-.028-6.531-.009-9.8-.009-.123,0-.246.009-.37.019Z" transform="translate(-45.7 -120.386)"/>
      <path id="Контур_329" data-name="Контур 329" d="M93.377,253.608v-3.024c0-.616.2-.825.806-.825,1.877,0,3.753-.009,5.64,0a3.928,3.928,0,0,1,3.706,2.72,3.85,3.85,0,0,1-1.517,4.332,3.48,3.48,0,0,1-1.934.673c-1.99.009-3.981.019-5.971.009-.521,0-.72-.218-.72-.749C93.368,255.7,93.377,254.651,93.377,253.608Zm1.308,2.578c1.82,0,3.6.028,5.374-.009a2.526,2.526,0,0,0,2.332-2.294,2.594,2.594,0,0,0-2.682-2.844c-1.573-.009-3.156,0-4.73,0-.095,0-.19.019-.284.028C94.685,252.793,94.685,254.471,94.685,256.186Z" transform="translate(-88.856 -237.493)"/>
      <path id="Контур_330" data-name="Контур 330" d="M97.495,154.428c1.1,0,2.2-.038,3.289.009a3.194,3.194,0,0,1,.152,6.351c-.9.085-1.81.057-2.72.066-1.308.009-2.626,0-3.934,0-.692,0-.882-.19-.882-.863v-4.73c0-.692.171-.863.882-.863h3.213Zm-2.787,5.128c.095.009.161.019.218.019H100.4a3.247,3.247,0,0,0,.521-.057,1.865,1.865,0,0,0,1.488-1.725,1.885,1.885,0,0,0-2.009-2.076c-1.829-.019-3.649,0-5.479,0a2.129,2.129,0,0,0-.227.028C94.708,157.007,94.708,158.258,94.708,159.556Z" transform="translate(-88.879 -151.176)"/>
    </g>
  </g>
</svg>
