<svg xmlns="http://www.w3.org/2000/svg" width="13.244" height="23.285" viewBox="0 0 13.244 23.285">
  <path id="facebook" d="M183.36,124.461h2.522a1.09,1.09,0,0,1,1.03.489,1.515,1.515,0,0,1,.209.724c.017,1.152.009,2.3.009,3.456a1.138,1.138,0,0,1-1.2,1.2c-.777.009-1.545,0-2.321,0h-.279v.305q0,3.966-.009,7.932a1.715,1.715,0,0,1-.1.637,1.076,1.076,0,0,1-1.065.672c-1.213,0-2.426.009-3.639,0a1.124,1.124,0,0,1-1.187-1.117c-.009-.087,0-.183,0-.271v-8.168h-2.077a1.132,1.132,0,0,1-1.222-1.222q-.013-1.728,0-3.456a1.118,1.118,0,0,1,1.2-1.2c.611-.009,1.23,0,1.841,0h.27v-.314a26.793,26.793,0,0,1,.122-2.784,5.467,5.467,0,0,1,5.332-4.747c1.134,0,2.278.017,3.412-.009a1.1,1.1,0,0,1,1.021.812,2.094,2.094,0,0,1,.044.4v3.115a1.152,1.152,0,0,1-1.257,1.257c-.672.009-1.353.009-2.024.017a1.432,1.432,0,0,0-.2.017c-.34.061-.419.131-.428.48C183.351,123.265,183.36,123.85,183.36,124.461Zm-7.949,4.5H177.9a.76.76,0,0,1,.82.8V138.5h3.255V129.88c0-.646.271-.916.908-.916h2.88v-3.141H182.81a.741.741,0,0,1-.838-.733c-.017-.864-.026-1.728.035-2.592a1.6,1.6,0,0,1,1.545-1.614c.654-.079,1.326-.052,2-.07h.34v-2.862c-.035-.009-.052-.026-.07-.026-.977,0-1.955-.017-2.932.017a4.239,4.239,0,0,0-2.705,1.03,4.384,4.384,0,0,0-1.449,3.246c-.044.881-.017,1.771-.017,2.661,0,.663-.279.942-.934.942h-2.365C175.41,126.878,175.41,127.907,175.41,128.963Z" transform="translate(-174.025 -116.598)"/>
</svg>
