<svg id="instagram_1_" data-name="instagram (1)" xmlns="http://www.w3.org/2000/svg" width="24.986" height="24.986" viewBox="0 0 24.986 24.986">
  <path id="Контур_252" data-name="Контур 252" d="M18.222,0H6.763A6.771,6.771,0,0,0,0,6.764V18.223a6.771,6.771,0,0,0,6.764,6.763H18.222a6.771,6.771,0,0,0,6.763-6.763V6.764A6.771,6.771,0,0,0,18.222,0Zm5.3,18.223a5.3,5.3,0,0,1-5.3,5.3H6.763a5.3,5.3,0,0,1-5.3-5.3V6.764a5.3,5.3,0,0,1,5.3-5.3H18.222a5.3,5.3,0,0,1,5.3,5.3Zm0,0" transform="translate(0.001 0)"/>
  <path id="Контур_253" data-name="Контур 253" d="M122.836,116a6.832,6.832,0,1,0,6.832,6.832A6.84,6.84,0,0,0,122.836,116Zm0,12.2a5.367,5.367,0,1,1,5.367-5.367A5.373,5.373,0,0,1,122.836,128.2Zm0,0" transform="translate(-110.343 -110.343)"/>
  <path id="Контур_254" data-name="Контур 254" d="M360,66.285a2.019,2.019,0,1,0,2.019,2.019A2.021,2.021,0,0,0,360,66.285Zm0,2.573a.554.554,0,1,1,.554-.554A.555.555,0,0,1,360,68.858Zm0,0" transform="translate(-340.507 -63.05)"/>
</svg>
