<svg xmlns="http://www.w3.org/2000/svg" width="194.6" height="58.527" viewBox="0 0 194.6 58.527">
  <g id="ZIG_ZAG" transform="translate(-150.1 -288.6)">
    <g id="Сгруппировать_37" data-name="Сгруппировать 37" transform="translate(150.1 288.6)">
      <g id="Сгруппировать_36" data-name="Сгруппировать 36" transform="translate(0.011)">
        <path id="Контур_342" data-name="Контур 342" d="M151.894,301.274V297.6h20.067l-15.884,34.309h15.09v3.727H150.2l16.022-34.362Z" transform="translate(-150.2 -296.647)" fill="#ffffff"/>
        <path id="Контур_343" data-name="Контур 343" d="M412.5,297.6h3.8v38.026h-3.8Z" transform="translate(-384.724 -296.647)" fill="#ffffff"/>
        <path id="Контур_344" data-name="Контур 344" d="M551.38,295.938l-2.944,2.8a22.575,22.575,0,0,0-6.968-4.744,18.69,18.69,0,0,0-7.381-1.62,17.475,17.475,0,0,0-8.514,2.2,15.9,15.9,0,0,0-6.269,5.962,15.386,15.386,0,0,0-2.224,7.953,15.668,15.668,0,0,0,2.3,8.154,16.353,16.353,0,0,0,6.364,6.078,18.315,18.315,0,0,0,8.9,2.213,15.2,15.2,0,0,0,9.933-3.314,13.033,13.033,0,0,0,4.808-8.588H537.244v-3.674h16.392q-.048,8.816-5.231,14t-13.872,5.189q-10.547,0-16.7-7.19a19.086,19.086,0,0,1-4.733-12.792,19.62,19.62,0,0,1,2.711-10.06,19.272,19.272,0,0,1,7.444-7.275,21.729,21.729,0,0,1,10.706-2.626,23.745,23.745,0,0,1,9.1,1.747A27.256,27.256,0,0,1,551.38,295.938Z" transform="translate(-474.671 -288.6)" fill="#ffffff"/>
        <path id="Контур_345" data-name="Контур 345" d="M1021.894,301.274V297.6h20.067l-15.884,34.309h15.09v3.727H1020.2l16.022-34.362Z" transform="translate(-928.073 -296.647)" fill="#ffffff"/>
        <path id="Контур_346" data-name="Контур 346" d="M1274.891,297.6l17.737,38.026h-4.109l-5.983-12.517h-16.382l-5.919,12.517H1256l17.97-38.026Zm-.487,8.08-6.512,13.766h13Z" transform="translate(-1138.903 -296.647)" fill="#ffffff"/>
        <path id="Контур_347" data-name="Контур 347" d="M1643.27,295.938l-2.944,2.8a22.574,22.574,0,0,0-6.968-4.744,18.69,18.69,0,0,0-7.381-1.62,17.475,17.475,0,0,0-8.514,2.2,15.9,15.9,0,0,0-6.269,5.962,15.386,15.386,0,0,0-2.224,7.953,15.668,15.668,0,0,0,2.3,8.154,16.353,16.353,0,0,0,6.364,6.078,18.315,18.315,0,0,0,8.9,2.213,15.2,15.2,0,0,0,9.933-3.314,13.033,13.033,0,0,0,4.808-8.588h-12.125v-3.674h16.392q-.048,8.816-5.231,14t-13.872,5.189q-10.547,0-16.7-7.19A19.086,19.086,0,0,1,1605,308.561a19.621,19.621,0,0,1,2.711-10.06,19.272,19.272,0,0,1,7.444-7.275,21.729,21.729,0,0,1,10.706-2.626,23.745,23.745,0,0,1,9.1,1.747A27.216,27.216,0,0,1,1643.27,295.938Z" transform="translate(-1450.947 -288.6)" fill="#ffffff"/>
      </g>
      <path id="Контур_348" data-name="Контур 348" d="M158.773,731.922v8.323h-1.059v-1.43a4.463,4.463,0,0,1-1.514,1.228,4.221,4.221,0,0,1-4.85-.868,4.45,4.45,0,0,1,.011-6.195A4.129,4.129,0,0,1,154.4,731.7a3.954,3.954,0,0,1,1.853.434,4.262,4.262,0,0,1,1.461,1.313v-1.535h1.059Zm-4.278.826a3.252,3.252,0,0,0-2.859,1.684,3.4,3.4,0,0,0-.445,1.684,3.354,3.354,0,0,0,.455,1.684,3.263,3.263,0,0,0,1.207,1.25,3.146,3.146,0,0,0,1.631.445,3.316,3.316,0,0,0,1.663-.445,3.052,3.052,0,0,0,1.207-1.2,3.4,3.4,0,0,0,.424-1.7,3.305,3.305,0,0,0-.953-2.414A3.151,3.151,0,0,0,154.495,732.748Z" transform="translate(-150.1 -684.779)" fill="#ffffff"/>
      <path id="Контур_349" data-name="Контур 349" d="M325.7,732.012h1.07v1.535a4.374,4.374,0,0,1,1.461-1.313,3.941,3.941,0,0,1,1.843-.434,4.106,4.106,0,0,1,3.039,1.281,4.45,4.45,0,0,1,.011,6.195,4.221,4.221,0,0,1-4.85.868,4.557,4.557,0,0,1-1.5-1.228V743.4H325.7Zm4.289.826a3.165,3.165,0,0,0-2.34.974,3.306,3.306,0,0,0-.953,2.414,3.4,3.4,0,0,0,.424,1.7,3.08,3.08,0,0,0,1.218,1.2,3.355,3.355,0,0,0,1.673.445,3.234,3.234,0,0,0,2.827-1.694,3.436,3.436,0,0,0,.455-1.684,3.394,3.394,0,0,0-.445-1.684,3.233,3.233,0,0,0-1.207-1.239A3.319,3.319,0,0,0,329.989,732.838Z" transform="translate(-307.105 -684.868)" fill="#ffffff"/>
      <path id="Контур_350" data-name="Контур 350" d="M501.6,733.8h1.281l2.213,3.05,2.192-3.05h1.292l-2.838,3.939,3.2,4.395h-1.3l-2.531-3.495-2.52,3.495H501.3l3.156-4.384Z" transform="translate(-464.11 -686.656)" fill="#ffffff"/>
      <path id="Контур_351" data-name="Контур 351" d="M677.87,733.8v6.163l6.11-6.163h.085v8.323h-1.07v-6.1l-6.068,6.1H676.8V733.8Z" transform="translate(-621.026 -686.656)" fill="#ffffff"/>
      <path id="Контур_352" data-name="Контур 352" d="M852.4,733.8h5.475v.921h-2.2v7.4H854.6v-7.4h-2.2V733.8Z" transform="translate(-778.031 -686.656)" fill="#ffffff"/>
      <path id="Контур_353" data-name="Контур 353" d="M1035.234,737.582l.9.477a4.895,4.895,0,0,1-1.027,1.408,4.135,4.135,0,0,1-1.313.815,4.507,4.507,0,0,1-1.652.275,3.982,3.982,0,0,1-3.187-1.334,4.525,4.525,0,0,1-1.154-3.018,4.471,4.471,0,0,1,.974-2.827,4,4,0,0,1,3.3-1.578,4.119,4.119,0,0,1,3.4,1.61,4.5,4.5,0,0,1,.921,2.849h-7.487a3.4,3.4,0,0,0,.932,2.383,2.944,2.944,0,0,0,2.213.932,3.558,3.558,0,0,0,1.239-.222,3.334,3.334,0,0,0,1.027-.582A5.565,5.565,0,0,0,1035.234,737.582Zm0-2.245a3.557,3.557,0,0,0-.625-1.366,3.057,3.057,0,0,0-1.08-.826,3.27,3.27,0,0,0-1.419-.318,3.074,3.074,0,0,0-2.107.784,3.517,3.517,0,0,0-.974,1.726Z" transform="translate(-934.858 -684.868)" fill="#ffffff"/>
      <path id="Контур_354" data-name="Контур 354" d="M1203.5,733.8h1.069v3.516l3.854-3.505h1.493l-4.225,3.812,4.553,4.511h-1.5l-3.833-3.844-.339.3v3.547H1203.5Z" transform="translate(-1091.952 -686.656)" fill="#ffffff"/>
      <path id="Контур_355" data-name="Контур 355" d="M1379.1,733.8h5.475v.921h-2.2v7.4h-1.07v-7.4h-2.2Z" transform="translate(-1248.957 -686.656)" fill="#ffffff"/>
      <path id="Контур_356" data-name="Контур 356" d="M1554.7,733.8h1.133l2.859,6.407,2.774-6.407h1.144l-4.966,11.373h-1.133l1.6-3.674Z" transform="translate(-1405.963 -686.656)" fill="#ffffff"/>
      <path id="Контур_357" data-name="Контур 357" d="M1730.2,732.012h1.07v1.535a4.373,4.373,0,0,1,1.461-1.313,3.941,3.941,0,0,1,1.843-.434,4.106,4.106,0,0,1,3.039,1.281,4.45,4.45,0,0,1,.01,6.195,4.221,4.221,0,0,1-4.85.868,4.556,4.556,0,0,1-1.5-1.228V743.4h-1.07Zm4.289.826a3.165,3.165,0,0,0-2.34.974,3.305,3.305,0,0,0-.953,2.414,3.4,3.4,0,0,0,.424,1.7,3.08,3.08,0,0,0,1.218,1.2,3.355,3.355,0,0,0,1.673.445,3.234,3.234,0,0,0,2.827-1.694,3.435,3.435,0,0,0,.455-1.684,3.394,3.394,0,0,0-.445-1.684,3.233,3.233,0,0,0-1.207-1.239A3.319,3.319,0,0,0,1734.489,732.838Z" transform="translate(-1562.878 -684.868)" fill="#ffffff"/>
      <path id="Контур_358" data-name="Контур 358" d="M1914.472,731.922v8.323h-1.059v-1.43a4.462,4.462,0,0,1-1.514,1.228,4.221,4.221,0,0,1-4.85-.868,4.45,4.45,0,0,1,.01-6.195,4.129,4.129,0,0,1,3.039-1.281,3.954,3.954,0,0,1,1.853.434,4.261,4.261,0,0,1,1.461,1.313v-1.535h1.059Zm-4.289.826a3.252,3.252,0,0,0-2.859,1.684,3.394,3.394,0,0,0-.445,1.684,3.354,3.354,0,0,0,.455,1.684,3.263,3.263,0,0,0,1.207,1.25,3.147,3.147,0,0,0,1.631.445,3.317,3.317,0,0,0,1.663-.445,3.052,3.052,0,0,0,1.207-1.2,3.394,3.394,0,0,0,.424-1.7,3.306,3.306,0,0,0-.953-2.414A3.135,3.135,0,0,0,1910.184,732.748Z" transform="translate(-1719.883 -684.779)" fill="#ffffff"/>
    </g>
  </g>
</svg>
