<svg xmlns="http://www.w3.org/2000/svg" width="24.146" height="24.129" viewBox="0 0 24.146 24.129">
  <g id="pinterest" transform="translate(-45.633 -45.6)">
    <path id="Контур_324" data-name="Контур 324" d="M69.471,57.727c-.029.358-.052.715-.087,1.073a11.332,11.332,0,0,1-2.606,6.3,11.52,11.52,0,0,1-7.843,4.256,11.82,11.82,0,0,1-4.665-.421c-.358-.1-.381-.144-.173-.461a9.748,9.748,0,0,0,1.332-3.114c.231-.992.49-1.978.738-2.97a1.046,1.046,0,0,1,.092-.2.922.922,0,0,1,.133.173,2.717,2.717,0,0,0,2.284,1.73,4.411,4.411,0,0,0,1.8-.133A5.464,5.464,0,0,0,64.01,60.87a9.513,9.513,0,0,0,.871-3.806A5.83,5.83,0,0,0,64,53.644a6.353,6.353,0,0,0-3.9-2.831,8.324,8.324,0,0,0-4.89.219A7.756,7.756,0,0,0,52,52.993a5.868,5.868,0,0,0-1.684,3.644,6.135,6.135,0,0,0,.392,2.935,3.088,3.088,0,0,0,1.407,1.615c.254.133.311.11.386-.161a.48.48,0,0,1,.023-.087,1.215,1.215,0,0,0-.185-1.257,3.7,3.7,0,0,1-.565-2.71,5.6,5.6,0,0,1,2.941-4.492,5.812,5.812,0,0,1,2.428-.721,6.007,6.007,0,0,1,3.143.507,4.273,4.273,0,0,1,2.537,3.8,8.811,8.811,0,0,1-.738,4.244,4.442,4.442,0,0,1-1.932,2.237,2.49,2.49,0,0,1-2.889-.306,1.95,1.95,0,0,1-.582-1.891c.2-.848.473-1.684.721-2.52a4.85,4.85,0,0,0,.288-1.667,1.111,1.111,0,0,0-.623-1.1,1.3,1.3,0,0,0-1.349.161,2.6,2.6,0,0,0-.975,1.984,4.148,4.148,0,0,0,.294,1.961.683.683,0,0,1,0,.358c-.392,1.7-.784,3.391-1.194,5.086a12.665,12.665,0,0,0-.438,3.252c.006.19.029.381.04.571.006.167-.063.225-.225.15a12.521,12.521,0,0,1-4.613-3.466A11.76,11.76,0,0,1,56.456,46c.4-.04.79-.063,1.188-.1h.092c.4.029.8.052,1.188.1a11.571,11.571,0,0,1,7.86,4.267,11.373,11.373,0,0,1,2.606,6.3c.035.358.058.715.086,1.073A.437.437,0,0,0,69.471,57.727Zm-22.8-.04a10.755,10.755,0,0,0,1.269,5.132A11.033,11.033,0,0,0,52.465,67.4c.2.115.236.081.259-.156a9.79,9.79,0,0,1,.1-1.1c.121-.657.277-1.3.432-1.955.363-1.54.732-3.074,1.09-4.613a.941.941,0,0,0,.012-.381,14.533,14.533,0,0,1-.277-1.465,3.5,3.5,0,0,1,1.055-2.947,2,2,0,0,1,2.168-.479,1.844,1.844,0,0,1,1.2,1.8,6.774,6.774,0,0,1-.45,2.335c-.2.686-.409,1.367-.559,2.064a1.344,1.344,0,0,0,1,1.568,1.829,1.829,0,0,0,1.176-.069,3.036,3.036,0,0,0,1.62-1.557,7.9,7.9,0,0,0,.836-4.642,3.372,3.372,0,0,0-1.891-2.791,5.132,5.132,0,0,0-3.2-.479,4.862,4.862,0,0,0-4.152,3.229,3.686,3.686,0,0,0,.438,3.91.768.768,0,0,1,.161.675c-.069.369-.133.744-.236,1.1a.744.744,0,0,1-1.1.5,3.562,3.562,0,0,1-1.476-1.176,5.587,5.587,0,0,1-1-4.169,7.383,7.383,0,0,1,4.117-5.8,8.959,8.959,0,0,1,5.04-.951,7.375,7.375,0,0,1,5.657,3.1A6.081,6.081,0,0,1,65.682,56.2a9.879,9.879,0,0,1-.617,4.227,6.714,6.714,0,0,1-3.691,4.042,5.141,5.141,0,0,1-2.883.34,3.789,3.789,0,0,1-1.672-.727c-.15-.11-.231-.092-.271.092-.012.069-.035.133-.052.2a12.907,12.907,0,0,1-1.326,3.737c-.133.219-.092.283.173.34A11.024,11.024,0,0,0,66.224,64.63a11,11,0,0,0-16.9-14.088A10.66,10.66,0,0,0,46.676,57.687Z" transform="translate(0 0)" stroke="#000" stroke-width="0.6"/>
  </g>
</svg>
