<svg xmlns="http://www.w3.org/2000/svg" width="39.656" height="24.389" viewBox="0 0 39.656 24.389">
  <path id="контур" d="M95.888,138.1c.266-.888,0-1.5-1.233-1.5H90.533a1.785,1.785,0,0,0-1.8,1.174,34.123,34.123,0,0,1-5.06,8.423c-.967.967-1.381,1.262-1.913,1.262-.266,0-.651-.3-.651-1.174V138.1c0-1.055-.3-1.5-1.174-1.5H73.46a1.013,1.013,0,0,0-1.055.947c0,1,1.47,1.233,1.647,4v6.066c0,1.322-.237,1.558-.769,1.558-1.381,0-4.793-5.119-6.8-11.007-.414-1.085-.8-1.558-1.854-1.558H60.51c-1.174,0-1.41.562-1.41,1.174,0,1.085,1.381,6.509,6.509,13.66,3.413,4.882,8.216,7.535,12.565,7.535,2.624,0,2.939-.592,2.939-1.588v-3.708c0-1.174.237-1.41,1.085-1.41.621,0,1.647.3,4.093,2.653,2.8,2.8,3.265,4.063,4.823,4.063h4.123c1.174,0,1.765-.592,1.41-1.736a18.286,18.286,0,0,0-3.472-4.823c-.967-1.144-2.416-2.357-2.831-2.969-.621-.8-.444-1.144,0-1.825.01-.059,5.05-7.121,5.543-9.537Z" transform="translate(-58.1 -135.6)" fill="none" stroke="#fff" stroke-miterlimit="10" stroke-width="2" fill-rule="evenodd"/>
</svg>
