<svg xmlns="http://www.w3.org/2000/svg" width="31.69" height="23.285" viewBox="0 0 31.69 23.285">
  <g id="youtube" transform="translate(-118.225 -153.134)">
    <path id="Контур_331" data-name="Контур 331" d="M149.9,170.714c-.06.276-.108.565-.18.841a6.282,6.282,0,0,1-6.19,4.856q-9.465.018-18.929,0a6.275,6.275,0,0,1-6.226-4.964,6.455,6.455,0,0,1-.144-1.442q-.018-5.228,0-10.456a6.238,6.238,0,0,1,4.291-6.057,6.658,6.658,0,0,1,2.115-.337q9.429-.036,18.869-.012a6.284,6.284,0,0,1,6.346,5.529.7.7,0,0,0,.06.168C149.9,162.793,149.9,166.759,149.9,170.714ZM134.063,154.44h-9.339a5.759,5.759,0,0,0-1.286.12,4.953,4.953,0,0,0-3.906,4.856c-.024,3.582-.012,7.151,0,10.733a4.584,4.584,0,0,0,.108.986,4.984,4.984,0,0,0,5.012,3.99H143.5a5.47,5.47,0,0,0,1.166-.108,4.956,4.956,0,0,0,3.954-4.88c.024-3.57.012-7.139,0-10.709a4.583,4.583,0,0,0-.108-.986,4.993,4.993,0,0,0-5-4C140.36,154.428,137.212,154.44,134.063,154.44Z" transform="translate(0 0)"/>
    <path id="Контур_332" data-name="Контур 332" d="M215,209.636V204.6c0-.769.469-1.046,1.13-.661,2.884,1.683,5.757,3.377,8.641,5.06.649.385.649.925.012,1.3-2.884,1.695-5.781,3.389-8.665,5.072-.637.373-1.118.084-1.118-.661Zm1.322-4.1v8.221c2.344-1.37,4.663-2.728,7.019-4.11C220.973,208.266,218.666,206.92,216.322,205.538Z" transform="translate(-85.144 -44.547)"/>
  </g>
</svg>
